<svg xmlns="http://www.w3.org/2000/svg" width="682.667" height="682.667" preserveAspectRatio="xMidYMid meet" version="1.0" viewBox="0 0 512 512"><metadata>Created by potrace 1.11, written by Peter Selinger 2001-2013</metadata><g fill="#000" stroke="none"><path d="M0 2560 l0 -2560 2560 0 2560 0 0 2560 0 2560 -2560 0 -2560 0 0 -2560z m3545 1280 l0 -185 -667 -3 -668 -2 0 -425 0 -425 575 0 575 0 0 -190 0 -190 -575 0 -575 0 0 -600 0 -600 -215 0 -215 0 0 1405 0 1405 883 -2 882 -3 0 -185z" transform="translate(0.000000,512.000000) scale(0.100000,-0.100000)"/></g></svg>